<svg xmlns="http://www.w3.org/2000/svg" width="121" height="121" viewBox="0 0 121 121"><g transform="translate(-1566 -567)"><circle cx="60.5" cy="60.5" r="60.5" transform="translate(1566 567)" fill="#3f3f3f"/><g transform="translate(1575.825 577.088)"><path d="M80,24.4a.967.967,0,0,0-1.4,0L24,79a.967.967,0,0,0,0,1.4L35.2,91.6a.967.967,0,0,0,1.4,0L91.2,37a.967.967,0,0,0,0-1.4Zm5.6,15.5-3.2-3.2A.99.99,0,0,0,81,38.1l3.2,3.2-2.3,2.3-3.2-3.2a.99.99,0,1,0-1.4,1.4L80.5,45l-2.3,2.3L75,44.1a.99.99,0,0,0-1.4,1.4l3.2,3.2L74.5,51l-3.2-3.2a.99.99,0,0,0-1.4,1.4l3.2,3.2-2.3,2.3-3.2-3.2a.99.99,0,1,0-1.4,1.4l3.2,3.2-2.3,2.3L64,55.2a.99.99,0,0,0-1.4,1.4l3.2,3.2-2.3,2.3-3.2-3.2a.99.99,0,1,0-1.4,1.4l3.2,3.2-2.3,2.3-3.2-3.2A.99.99,0,1,0,55.2,64l3.2,3.2-2.3,2.3-3.2-3.2a.99.99,0,1,0-1.4,1.4l3.2,3.2-2.3,2.3L49.2,70a.99.99,0,0,0-1.4,1.4L51,74.6l-2.3,2.3-3.2-3.2a.99.99,0,0,0-1.4,1.4l3.2,3.2L45,80.6l-3.2-3.2a.99.99,0,0,0-1.4,1.4L43.6,82l-2.3,2.3L38.1,81a.99.99,0,0,0-1.4,1.4l3.2,3.2-3.9,4-9.8-9.8L79.4,26.6l9.8,9.8Z" fill="#fff"/><path d="M66.8,30.1a12.48,12.48,0,0,0,3.1-12.6,1.208,1.208,0,0,0-.7-.7.806.806,0,0,0-.9.3l-6.6,6.6a2.233,2.233,0,0,1-3.2,0l-2.8-2.8a2.36,2.36,0,0,1-.7-1.6,1.99,1.99,0,0,1,.7-1.6l6.6-6.6a1.4,1.4,0,0,0,.3-.9.988.988,0,0,0-.7-.7,12.519,12.519,0,0,0-14.7,18L11.5,59.6a5.751,5.751,0,0,0,4,9.8,5.835,5.835,0,0,0,4.1-1.7L51.8,32.2A12.579,12.579,0,0,0,66.8,30.1Zm-15.9.2-32.7,36A3.748,3.748,0,0,1,12.9,61L49,28.3a1.062,1.062,0,0,0,.2-1.3A10.568,10.568,0,0,1,58,10.7a7.569,7.569,0,0,1,1.5.1l-5.3,5.3a4.335,4.335,0,0,0-1.3,3,3.946,3.946,0,0,0,1.3,3L57,24.9a4.335,4.335,0,0,0,3,1.3,3.946,3.946,0,0,0,3-1.3l5.3-5.3a10.161,10.161,0,0,1-3,8.9,10.583,10.583,0,0,1-13.2,1.4A1.2,1.2,0,0,0,50.9,30.3Z" fill="#fff"/><circle cx="1.4" cy="1.4" r="1.4" transform="translate(14.225 63.059) rotate(-45)" fill="#fff"/></g></g></svg>