<svg xmlns="http://www.w3.org/2000/svg" width="121" height="121" viewBox="0 0 121 121"><g transform="translate(-1712 -295)"><circle cx="60.5" cy="60.5" r="60.5" transform="translate(1712 295)" fill="#c63527"/><g transform="translate(1722.8 302.875)"><path d="M82,48.7V46.5c0-7.8-6-13.1-15-13.1H62.9a.945.945,0,0,0-1,1v7.8H57.7V31.4a.945.945,0,0,0-1-1h-22l.8-2.2a1.04,1.04,0,0,0-.6-1.3L21.7,22.2a1.1,1.1,0,0,0-.8,0,1.024,1.024,0,0,0-.5.6L13.6,42.1H8.7a.945.945,0,0,0-1,1V49a.945.945,0,0,0,1,1H9.9v2.1H8.7a.945.945,0,0,0-1,1V59a.945.945,0,0,0,1,1H9.9v2.1H8.7a.945.945,0,0,0-1,1V69a.945.945,0,0,0,1,1h7.4a7.874,7.874,0,0,0,15.6,0H68.5a7.874,7.874,0,0,0,15.6,0H92a.945.945,0,0,0,1-1V58C92.8,54.3,89.4,49,82,48.7ZM30,64.1H61.9V68H31.6A7.1,7.1,0,0,0,30,64.1ZM55.7,32.4v9.8H35V32.4ZM33,42.2H30.6L33,35.3ZM22,24.4l11.3,4L28.5,42.1H15.7ZM9.7,44.2H61.9v3.9H9.7Zm2.2,5.9h50v2.1h-50V50.1Zm-2.2,4H61.9V58H9.7Zm2.2,6h50v2.1H27.7a7.318,7.318,0,0,0-3.9-1,7.956,7.956,0,0,0-3.8,1H11.9Zm-2.2,4h8A7.1,7.1,0,0,0,16.1,68H9.7ZM23.8,74.9A5.911,5.911,0,0,1,17.9,69a5.848,5.848,0,0,1,5.9-5.9A5.911,5.911,0,0,1,29.7,69,5.848,5.848,0,0,1,23.8,74.9Zm52.4,0A5.911,5.911,0,0,1,70.3,69a5.848,5.848,0,0,1,5.9-5.9,5.9,5.9,0,0,1,0,11.8ZM90.8,68H84a7.859,7.859,0,0,0-15.6,0H63.9V35.4H67c6.5,0,13.1,3.4,13.1,11.1v3.2a.945.945,0,0,0,1,1h.4c6.3,0,9.3,4.4,9.3,7.3V68Z" fill="#fff"/><path d="M68.3,37.8H66.8a.945.945,0,0,0-1,1V49.7a.945.945,0,0,0,1,1H77.1a.945.945,0,0,0,1-1V47.6A9.816,9.816,0,0,0,68.3,37.8Zm7.8,10.9H67.8V39.8h.5a7.81,7.81,0,0,1,7.8,7.8Z" fill="#fff"/></g></g></svg>